<svg id="Layer_1" data-name="Layer 1" xmlns="http://www.w3.org/2000/svg" viewBox="0 0 395.34 71"><defs><style>.cls-1{fill:#fff;}.cls-2{fill:#15aecb;}</style></defs><title>logo</title><path class="cls-1" d="M39.65,16.29V53.87a3.77,3.77,0,0,1-7.53,0V38.81H15.26V53.87a3.79,3.79,0,0,1-3.8,3.73,3.74,3.74,0,0,1-3.73-3.73V16.29a3.74,3.74,0,0,1,3.73-3.73,3.79,3.79,0,0,1,3.8,3.73V31.35H32.12V16.29a3.77,3.77,0,0,1,7.53,0Z"/><path class="cls-1" d="M84.11,53.87a3.75,3.75,0,0,1-3.8,3.73H59.72a3.75,3.75,0,0,1-3.8-3.73V16.29a3.75,3.75,0,0,1,3.8-3.73H80.31a3.76,3.76,0,1,1,0,7.53H63.45V31.35H76.58a3.73,3.73,0,1,1,0,7.47H63.45V50.08H80.31A3.76,3.76,0,0,1,84.11,53.87Z"/><path class="cls-1" d="M133.66,52.54a3.76,3.76,0,0,1,.26,1.42,3.7,3.7,0,0,1-3.73,3.73,3.74,3.74,0,0,1-3.48-2.38l-2.83-7H106.44l-2.83,7a3.73,3.73,0,0,1-3.47,2.38A3.77,3.77,0,0,1,96.4,54a3.42,3.42,0,0,1,.26-1.42l15-37.52a3.77,3.77,0,0,1,7,0ZM120.85,40.83l-5.66-14.35-5.73,14.35Z"/><path class="cls-1" d="M176.07,52a3.68,3.68,0,0,1-1.22,5.15,3.54,3.54,0,0,1-1.93.58A3.82,3.82,0,0,1,169.71,56l-8.3-13.26H155.1V54a3.79,3.79,0,0,1-3.8,3.73A3.74,3.74,0,0,1,147.57,54V16.38a3.74,3.74,0,0,1,3.73-3.73h10.23a18.13,18.13,0,0,1,7.34,1.8c5,2.51,7.78,7.14,7.78,13.19a17.93,17.93,0,0,1-1.8,7.34,13.64,13.64,0,0,1-5.66,5.92Zm-21-16.8h6.44c3.22,0,5.28-1.1,6.5-3.41a10,10,0,0,0,1.1-4.12c0-3.22-1.16-5.28-3.6-6.5a10,10,0,0,0-4-1H155.1Z"/><path class="cls-1" d="M214.87,12.65a3.76,3.76,0,1,1,0,7.53h-7.46V54a3.79,3.79,0,0,1-3.8,3.73A3.74,3.74,0,0,1,199.88,54V20.18h-7.53a3.76,3.76,0,0,1,0-7.53Z"/><path class="cls-2" d="M266.87,54V27.64l-10.1,13.51a3.74,3.74,0,0,1-6.05,0l-10.1-13.51V54a3.77,3.77,0,0,1-7.53,0V16.38a3.75,3.75,0,0,1,3.8-3.73,3.62,3.62,0,0,1,3,1.48l13.91,18.53,13.9-18.53a3.62,3.62,0,0,1,3-1.48,3.75,3.75,0,0,1,3.8,3.73V54a3.77,3.77,0,0,1-7.53,0Z"/><path class="cls-2" d="M286.32,35.17c0-12.42,9.65-22.52,21.56-22.52s21.62,10.1,21.62,22.52-9.72,22.52-21.62,22.52S286.32,47.59,286.32,35.17Zm7.53,0c0,8.3,6.31,15,14,15S322,43.47,322,35.17s-6.31-15-14.09-15S293.85,26.87,293.85,35.17Z"/><path class="cls-2" d="M354.69,20.16a6.22,6.22,0,0,1,6.21,6.21V34a3.74,3.74,0,0,0,3.75,3.74h7.45a6.33,6.33,0,0,1,6.26,4.91,6.23,6.23,0,0,1-6.08,7.52H348.47V26.37a6.22,6.22,0,0,1,6.21-6.21m0-7.51A13.72,13.72,0,0,0,341,26.37V53.94a3.74,3.74,0,0,0,3.74,3.74h27.1c7.31,0,13.69-5.51,14.16-12.81a13.72,13.72,0,0,0-13.69-14.63h-3.87V26.37a13.72,13.72,0,0,0-13.72-13.72Z"/></svg>